<svg id="Layer_1" data-name="Layer 1" xmlns="http://www.w3.org/2000/svg" viewBox="0 0 16 16"><defs><style>.cls-1{fill:#0c36fb;}.cls-2{fill:#f1a1e3;}</style></defs><path class="cls-1" d="M6.88,5.1A2.68,2.68,0,0,1,8,4.88,2.82,2.82,0,0,1,10.21,6l0,0A2.4,2.4,0,0,0,9,2.83a2.36,2.36,0,0,0-3.11,1.3,2.56,2.56,0,0,0-.12.43,2.13,2.13,0,0,0-.12-.44A2.36,2.36,0,0,0,2.5,2.83,2.4,2.4,0,0,0,1.21,6c.5,1.2,4.52,4.71,4.52,4.71l.58-.52a5.93,5.93,0,0,1-1-1.33A2.85,2.85,0,0,1,6.88,5.1Z"/><path class="cls-2" d="M13.5,5.51a2.39,2.39,0,0,0-3.11,1.3,2.55,2.55,0,0,0-.11.44,3.72,3.72,0,0,0-.12-.44A2.38,2.38,0,1,0,5.77,8.64c.49,1.21,4.52,4.71,4.52,4.71s4-3.51,4.5-4.71A2.41,2.41,0,0,0,13.5,5.51Z"/></svg>