<svg id="Layer_1" data-name="Layer 1" xmlns="http://www.w3.org/2000/svg" viewBox="0 0 16 16"><defs><style>.cls-1{fill:#0c36fb;stroke:#f1a1e3;stroke-miterlimit:10;stroke-width:0.3px;}</style></defs><path class="cls-1" d="M13.14,6.72H1.93V9h0A5.63,5.63,0,0,0,13,10.16h.11a1.73,1.73,0,1,0,0-3.45Zm0,2.81c0-.18,0-.37,0-.56h0V7.36a1.09,1.09,0,0,1,0,2.17Z"/><path class="cls-1" d="M7.63,6A.54.54,0,0,0,8,5.87a.48.48,0,0,0,0-.68,2,2,0,0,1,.28-2.82.48.48,0,1,0-.67-.69,2.94,2.94,0,0,0-.33,4.14A.46.46,0,0,0,7.63,6Z"/><path class="cls-1" d="M10.32,6a.46.46,0,0,0,.29-.1.49.49,0,0,0,.1-.67,2,2,0,0,1-.29-1.77.48.48,0,0,0-.29-.61.47.47,0,0,0-.61.29,3,3,0,0,0,.42,2.67.49.49,0,0,0,.38.19Z"/><path class="cls-1" d="M4.89,6a.44.44,0,0,0,.28-.1.48.48,0,0,0,.11-.66A2,2,0,0,1,5,3.47a.49.49,0,0,0-.29-.62.47.47,0,0,0-.61.28A3,3,0,0,0,4.5,5.81a.47.47,0,0,0,.39.2Z"/></svg>